<svg xmlns="http://www.w3.org/2000/svg" width="82" height="82" viewBox="0 0 82 82">
  <g id="Group_8924" data-name="Group 8924" transform="translate(0.175 0)">
    <g id="Ellipse_302" data-name="Ellipse 302" transform="translate(-0.175 0)" fill="none" stroke="#171c3c" stroke-width="2">
      <circle cx="41" cy="41" r="41" stroke="none"/>
      <circle cx="41" cy="41" r="40" fill="none"/>
    </g>
    <g id="Group_8912" data-name="Group 8912" transform="translate(24.713 24.705)">
      <g id="Group_8911" data-name="Group 8911" transform="translate(0 0)">
        <g id="Group_8910" data-name="Group 8910">
          <path id="Path_6008" data-name="Path 6008" d="M749.647,516.881l-8.2,8.987-4.763-1.3a.658.658,0,0,0-.8.428l-.939,2.81a.663.663,0,0,0,.29.779l4.549,2.72,2.72,4.549a.657.657,0,0,0,.773.29l2.816-.939a.664.664,0,0,0,.428-.8l-1.3-4.763s4.245-3.872,8.98-8.207l7.51,13a.661.661,0,0,0,1.043.137l1.878-1.871a.681.681,0,0,0,.172-.628l-4.065-16.622c3.458-3.161,6.143-5.618,6.233-5.715a3.973,3.973,0,1,0-5.619-5.619c-.2.194-2.623,2.844-5.722,6.233l-16.615-4.066a.657.657,0,0,0-.628.173l-1.871,1.877a.661.661,0,0,0,.138,1.043Z" transform="translate(-734.911 -502.953)" fill="#171c3c" fill-rule="evenodd"/>
        </g>
      </g>
    </g>
  </g>
</svg>
