<svg xmlns="http://www.w3.org/2000/svg" width="82" height="82" viewBox="0 0 82 82">
  <g id="Group_8925" data-name="Group 8925" transform="translate(-0.124 0)">
    <g id="Ellipse_303" data-name="Ellipse 303" transform="translate(0.124 0)" fill="none" stroke="#171c3c" stroke-width="2">
      <circle cx="41" cy="41" r="41" stroke="none"/>
      <circle cx="41" cy="41" r="40" fill="none"/>
    </g>
    <g id="Group_8917" data-name="Group 8917" transform="translate(19.951 19.959)">
      <g id="Group_8914" data-name="Group 8914" transform="translate(14.352 0)">
        <g id="Group_8913" data-name="Group 8913">
          <path id="Path_6009" data-name="Path 6009" d="M1056.341,510.9h-2.8V502.5h2.8Zm11.877,6.293v-.7a13.246,13.246,0,0,0-10.48-12.974V501.8a.7.7,0,0,0-.7-.7h-4.193a.7.7,0,0,0-.7.7v1.7a13.211,13.211,0,0,0-8.7,6.337l1.212.7a11.84,11.84,0,0,1,4-4.127V509.5h1.4v-3.827a11.725,11.725,0,0,1,2.1-.713v6.637a.7.7,0,0,0,.7.7h4.193a.7.7,0,0,0,.7-.7V504.94a11.478,11.478,0,0,1,2.1.721V509.5h1.4V506.4a12.053,12.053,0,0,1,2.113,1.677,11.841,11.841,0,0,1,3.477,8.407v.7h-2.1v-2.8a.7.7,0,0,0-.7-.7h-4.191a.7.7,0,0,0-.7.7v2.1h1.4v-1.4h2.794v2.1h-2.1v1.4h6.987a1.4,1.4,0,0,1,.988,2.387,1.385,1.385,0,0,1-.988.41h-9.781v1.4h9.781a2.8,2.8,0,0,0,0-5.594" transform="translate(-1043.445 -501.105)" fill="#171c3c"/>
        </g>
      </g>
      <g id="Group_8916" data-name="Group 8916" transform="translate(0 10.489)">
        <g id="Group_8915" data-name="Group 8915" transform="translate(0 0)">
          <path id="Path_6010" data-name="Path 6010" d="M1006.024,550.987a.7.7,0,0,0,.859-.1l2.219-2.221,2.964,2.967-2.22,2.221a.7.7,0,0,0-.1.86,11.045,11.045,0,0,1,1.321,3.185.7.7,0,0,0,.68.536h3.139v4.2h-3.139a.7.7,0,0,0-.68.535,11.073,11.073,0,0,1-1.321,3.185.7.7,0,0,0,.1.86l2.22,2.221-2.964,2.966-2.219-2.221a.7.7,0,0,0-.859-.1,11.048,11.048,0,0,1-3.183,1.323.7.7,0,0,0-.534.68v3.141h-4.193v-3.141a.7.7,0,0,0-.535-.68,11.048,11.048,0,0,1-3.182-1.323.7.7,0,0,0-.859.1l-2.22,2.221-2.964-2.966,2.219-2.221a.7.7,0,0,0,.1-.86,11.06,11.06,0,0,1-1.321-3.185.7.7,0,0,0-.679-.535h-3.139v-4.2h3.139a.7.7,0,0,0,.679-.536,11.1,11.1,0,0,1,1.321-3.185.7.7,0,0,0-.1-.86l-2.219-2.221,2.964-2.967,2.22,2.221a.7.7,0,0,0,.859.1,11.072,11.072,0,0,1,3.182-1.322.7.7,0,0,0,.535-.681v-3.14h4.193v3.14a.7.7,0,0,0,.534.681m-18,14.359h3.3a12.54,12.54,0,0,0,1.067,2.573l-2.336,2.335a.7.7,0,0,0,0,.989l3.954,3.958a.7.7,0,0,0,.988,0l2.333-2.338a12.547,12.547,0,0,0,2.571,1.067v3.3a.7.7,0,0,0,.7.7h5.59a.7.7,0,0,0,.7-.7v-3.3a12.507,12.507,0,0,0,2.57-1.067l2.334,2.338a.7.7,0,0,0,.988,0l3.954-3.958a.7.7,0,0,0,0-.989l-2.336-2.335a12.6,12.6,0,0,0,1.067-2.573h3.3a.7.7,0,0,0,.7-.7v-5.594a.7.7,0,0,0-.7-.7h-3.3a12.613,12.613,0,0,0-1.067-2.572l2.336-2.336a.7.7,0,0,0,0-.989l-3.954-3.957a.7.7,0,0,0-.988,0l-2.334,2.338a12.525,12.525,0,0,0-2.57-1.068v-3.3a.7.7,0,0,0-.7-.7h-5.59a.7.7,0,0,0-.7.7v3.3a12.565,12.565,0,0,0-2.571,1.068l-2.333-2.338a.7.7,0,0,0-.988,0l-3.954,3.957a.7.7,0,0,0,0,.989l2.336,2.336a12.559,12.559,0,0,0-1.067,2.572h-3.3a.7.7,0,0,0-.7.7v5.594a.7.7,0,0,0,.7.7" transform="translate(-984.141 -544.445)" fill="#171c3c"/>
        </g>
      </g>
      <path id="Path_6011" data-name="Path 6011" d="M1024.279,577.628a6.992,6.992,0,1,1-6.986,6.993A7,7,0,0,1,1024.279,577.628Zm0,15.383a8.391,8.391,0,1,0-8.384-8.391,8.4,8.4,0,0,0,8.384,8.391" transform="translate(-1008.21 -558.049)" fill="#171c3c"/>
      <path id="Path_6012" data-name="Path 6012" d="M1037.411,594.964a2.8,2.8,0,1,1-2.795,2.8A2.8,2.8,0,0,1,1037.411,594.964Zm0,6.993a4.2,4.2,0,1,0-4.192-4.2,4.2,4.2,0,0,0,4.192,4.2" transform="translate(-1021.342 -571.19)" fill="#171c3c"/>
    </g>
  </g>
</svg>
