<svg xmlns="http://www.w3.org/2000/svg" width="81" height="82" viewBox="0 0 81 82">
  <g id="Group_8922" data-name="Group 8922" transform="translate(-0.378 0)">
    <g id="Ellipse_300" data-name="Ellipse 300" transform="translate(0.378 0)" fill="none" stroke="#171c3c" stroke-width="2">
      <ellipse cx="40.5" cy="41" rx="40.5" ry="41" stroke="none"/>
      <ellipse cx="40.5" cy="41" rx="39.5" ry="40" fill="none"/>
    </g>
    <g id="Group_8904" data-name="Group 8904" transform="translate(26.726 16.796)">
      <g id="Group_8901" data-name="Group 8901" transform="translate(0 4.47)">
        <path id="Path_6002" data-name="Path 6002" d="M343.6,769.49a3.519,3.519,0,0,0,2.08-1.208c.808-1.006.234-3.467-.079-5.133s-.836-5.557-1.071-8.2-.209-9.868-.158-11.508a3.387,3.387,0,0,1,.6-2.249c.365-.793,1.358-1.321,1.592-3.016s-.234-5.609-.574-9.418-.365-3.1-.365-2.567.053,9.895-.026,10.4a.428.428,0,0,1-.836,0c-.052-.4-.078-.715-.209-2.752s-.216-8.1-.322-8.072-.266,10.386-.279,10.876c-.012.44-.29.377-.364.377h-.012c-.074,0-.359.063-.371-.377-.012-.49-.156-10.85-.26-10.876s-.209,6.033-.339,8.071-.157,2.354-.21,2.752a.428.428,0,0,1-.836,0c-.078-.5-.027-9.869-.027-10.4s-.025-1.243-.364,2.567-.81,7.726-.575,9.418,1.228,2.223,1.594,3.016a3.385,3.385,0,0,1,.6,2.249c.052,1.64.077,8.864-.156,11.508s-.759,6.534-1.072,8.2-.888,4.127-.078,5.133a3.521,3.521,0,0,0,2.078,1.208Z" transform="translate(-340.535 -725.764)" fill="#171c3c"/>
      </g>
      <g id="Group_8902" data-name="Group 8902" transform="translate(10.788)">
        <path id="Path_6003" data-name="Path 6003" d="M384.306,705.351a7.254,7.254,0,0,1,1.384-1.983c.547-.331,1.4-.583,1.475.9s.48,18.638.445,19.625-.244,3.669-.349,5.08a31.714,31.714,0,0,0,.209,7.055c.453,4.868,1.289,11,.662,13.157,0,0-.451,2.011-2.159,2.011s-2.019-1.411-2.194-2.857a74.621,74.621,0,0,1,.071-9.524c.347-6.419.487-7.513.452-8.712s-.523-4.057-.731-5.538a97.739,97.739,0,0,1-.384-10.689C383.256,709.676,383.683,706.845,384.306,705.351Z" transform="translate(-383.174 -703.114)" fill="#171c3c"/>
      </g>
      <g id="Group_8903" data-name="Group 8903" transform="translate(19.312 5.56)">
        <path id="Path_6004" data-name="Path 6004" d="M420.571,744.987c1.462-.9,3.4-2.857,2.82-6.826a9.947,9.947,0,0,0-3.143-6.34,1.915,1.915,0,0,0-2.654,0,9.946,9.946,0,0,0-3.142,6.34c-.575,3.969,1.358,5.926,2.82,6.826s.942,3.386.888,5.343-.26,8.89-.52,11.27-1.36,6.985-1.464,8.255-.106,3.757,2.4,3.757h.687c2.507,0,2.507-2.488,2.4-3.757s-1.2-5.873-1.462-8.255-.47-9.311-.523-11.27S419.108,745.887,420.571,744.987Z" transform="translate(-414.348 -731.286)" fill="#171c3c"/>
      </g>
    </g>
  </g>
</svg>
