<svg id="Group_6703" data-name="Group 6703" xmlns="http://www.w3.org/2000/svg" width="126" height="124.32" viewBox="0 0 126 124.32">
  <g id="email_filled" transform="translate(33.427 41.372)">
    <g id="Group_546" data-name="Group 546">
      <path id="Path_230" data-name="Path 230" d="M70.245,339.684a5.627,5.627,0,0,0,3.544-1.168L56.629,323.529c-.412.257-.811.508-1.188.746q-1.926,1.24-3.127,1.933a20.483,20.483,0,0,1-3.194,1.417,10.947,10.947,0,0,1-3.718.723h-.067a10.941,10.941,0,0,1-3.718-.723,20.417,20.417,0,0,1-3.194-1.417q-1.2-.693-3.127-1.933c-.358-.229-.755-.481-1.184-.75L16.946,338.516a5.628,5.628,0,0,0,3.545,1.168Z" transform="translate(-15.319 -298.121)" fill="#fff"/>
      <path id="Path_231" data-name="Path 231" d="M2.982,201.123A15.649,15.649,0,0,1,0,198.555v22.8l13.209-13.209Q9.245,205.38,2.982,201.123Z" transform="translate(0 -185.154)" fill="#fff"/>
      <path id="Path_232" data-name="Path 232" d="M423.561,201.123q-6.031,4.082-10.252,7.03l13.2,13.2v-22.8A16.28,16.28,0,0,1,423.561,201.123Z" transform="translate(-366.414 -185.154)" fill="#fff"/>
      <path id="Path_233" data-name="Path 233" d="M54.738,59.013H5.372A5.09,5.09,0,0,0,1.4,60.548,5.5,5.5,0,0,0,.006,64.385a6.456,6.456,0,0,0,1.844,4.03,15.853,15.853,0,0,0,3.924,3.409q1.14.709,6.875,4.207c2.064,1.259,3.859,2.356,5.4,3.3,1.315.806,2.449,1.5,3.385,2.084.107.066.277.173.5.314l.925.587q1.09.694,1.811,1.122t1.744.959a10.861,10.861,0,0,0,1.929.8,5.992,5.992,0,0,0,1.677.266h.067a5.994,5.994,0,0,0,1.677-.266,10.836,10.836,0,0,0,1.928-.8q1.023-.531,1.744-.959t1.811-1.122c.377-.24.682-.434.924-.586.224-.142.393-.247.5-.314l3.394-2.076q4.171-2.551,12.3-7.518a15.119,15.119,0,0,0,4.091-3.631A7.192,7.192,0,0,0,60.1,63.736,4.281,4.281,0,0,0,58.512,60.4,5.561,5.561,0,0,0,54.738,59.013Z" transform="translate(-0.005 -59.013)" fill="#fff"/>
    </g>
  </g>
  <g id="Ellipse_280" data-name="Ellipse 280" fill="none" stroke="#fff" stroke-width="1.5">
    <ellipse cx="63" cy="62.16" rx="63" ry="62.16" stroke="none"/>
    <ellipse cx="63" cy="62.16" rx="62.25" ry="61.41" fill="none"/>
  </g>
</svg>
