<svg id="Group_8740" data-name="Group 8740" xmlns="http://www.w3.org/2000/svg" width="39.561" height="39.561" viewBox="0 0 39.561 39.561">
  <g id="Group_8738" data-name="Group 8738">
    <path id="Path_5978" data-name="Path 5978" d="M570.652,167.316a19.78,19.78,0,1,1,19.781-19.78A19.8,19.8,0,0,1,570.652,167.316Zm0-38.061a18.28,18.28,0,1,0,18.281,18.281A18.3,18.3,0,0,0,570.652,129.255Z" transform="translate(-550.872 -127.755)" fill="#fff"/>
  </g>
  <g id="Group_8739" data-name="Group 8739" transform="translate(14.471 8.278)">
    <path id="Path_5979" data-name="Path 5979" d="M567.753,159.039h4.632v-11.6h3.232l.345-3.884h-3.577v-2.212c0-.916.184-1.278,1.07-1.278h2.507v-4.031h-3.208c-3.447,0-5,1.518-5,4.424v3.1h-2.41v3.933h2.41Z" transform="translate(-565.343 -136.033)" fill="#fff"/>
  </g>
</svg>
