<svg id="Group_8748" data-name="Group 8748" xmlns="http://www.w3.org/2000/svg" width="39.56" height="39.561" viewBox="0 0 39.56 39.561">
  <g id="Group_8741" data-name="Group 8741">
    <path id="Path_5980" data-name="Path 5980" d="M620.117,167.316a19.78,19.78,0,1,1,19.78-19.78A19.8,19.8,0,0,1,620.117,167.316Zm0-38.061a18.28,18.28,0,1,0,18.28,18.281A18.3,18.3,0,0,0,620.117,129.255Z" transform="translate(-600.337 -127.755)" fill="#fff"/>
  </g>
  <g id="Group_8747" data-name="Group 8747" transform="translate(9.346 9.346)">
    <g id="Group_8743" data-name="Group 8743">
      <g id="Group_8742" data-name="Group 8742">
        <path id="Path_5981" data-name="Path 5981" d="M620.117,138.981c2.786,0,3.116.011,4.216.061a5.783,5.783,0,0,1,1.938.36,3.449,3.449,0,0,1,1.98,1.98,5.78,5.78,0,0,1,.36,1.937c.05,1.1.06,1.431.06,4.217s-.01,3.116-.06,4.216a5.782,5.782,0,0,1-.36,1.938,3.448,3.448,0,0,1-1.98,1.98,5.763,5.763,0,0,1-1.938.359c-1.1.05-1.43.061-4.216.061s-3.116-.011-4.216-.061a5.763,5.763,0,0,1-1.938-.359,3.449,3.449,0,0,1-1.98-1.98,5.784,5.784,0,0,1-.36-1.938c-.05-1.1-.06-1.43-.06-4.216s.01-3.116.06-4.217a5.782,5.782,0,0,1,.36-1.937,3.449,3.449,0,0,1,1.98-1.98,5.783,5.783,0,0,1,1.938-.36c1.1-.05,1.43-.061,4.216-.061m0-1.88c-2.834,0-3.189.013-4.3.063a7.666,7.666,0,0,0-2.533.485,5.342,5.342,0,0,0-3.052,3.052,7.667,7.667,0,0,0-.485,2.533c-.05,1.113-.062,1.468-.062,4.3s.012,3.189.062,4.3a7.667,7.667,0,0,0,.485,2.533,5.342,5.342,0,0,0,3.052,3.052,7.693,7.693,0,0,0,2.533.485c1.113.05,1.468.062,4.3.062s3.189-.012,4.3-.062a7.693,7.693,0,0,0,2.533-.485A5.342,5.342,0,0,0,630,154.371a7.694,7.694,0,0,0,.485-2.533c.05-1.113.062-1.468.062-4.3s-.012-3.189-.062-4.3A7.694,7.694,0,0,0,630,140.7a5.342,5.342,0,0,0-3.052-3.052,7.666,7.666,0,0,0-2.533-.485c-1.113-.05-1.468-.063-4.3-.063" transform="translate(-609.683 -137.101)" fill="#fff"/>
      </g>
    </g>
    <g id="Group_8745" data-name="Group 8745" transform="translate(5.076 5.077)">
      <g id="Group_8744" data-name="Group 8744">
        <path id="Path_5982" data-name="Path 5982" d="M620.117,142.178a5.358,5.358,0,1,0,5.358,5.358,5.358,5.358,0,0,0-5.358-5.358m0,8.836a3.478,3.478,0,1,1,3.478-3.478,3.478,3.478,0,0,1-3.478,3.478" transform="translate(-614.759 -142.178)" fill="#fff"/>
      </g>
    </g>
    <g id="Group_8746" data-name="Group 8746" transform="translate(14.752 3.613)">
      <path id="Path_5983" data-name="Path 5983" d="M626.939,141.966a1.252,1.252,0,1,1-1.252-1.252,1.253,1.253,0,0,1,1.252,1.252" transform="translate(-624.435 -140.714)" fill="#fff"/>
    </g>
  </g>
</svg>
