<svg id="Group_8737" data-name="Group 8737" xmlns="http://www.w3.org/2000/svg" width="39.561" height="39.561" viewBox="0 0 39.561 39.561">
  <g id="Group_8731" data-name="Group 8731">
    <path id="Path_5975" data-name="Path 5975" d="M670.1,167.316a19.78,19.78,0,1,1,19.78-19.78A19.8,19.8,0,0,1,670.1,167.316Zm0-38.061a18.28,18.28,0,1,0,18.28,18.281A18.3,18.3,0,0,0,670.1,129.255Z" transform="translate(-650.318 -127.755)" fill="#fff"/>
  </g>
  <g id="Group_8736" data-name="Group 8736" transform="translate(10.773 9.177)">
    <g id="Group_8734" data-name="Group 8734">
      <g id="Group_8732" data-name="Group 8732" transform="translate(0.378 6.362)">
        <rect id="Rectangle_2107" data-name="Rectangle 2107" width="3.939" height="12.724" fill="#fff"/>
      </g>
      <g id="Group_8733" data-name="Group 8733">
        <path id="Path_5976" data-name="Path 5976" d="M663.419,141.627a2.348,2.348,0,1,0-2.328-2.348A2.339,2.339,0,0,0,663.419,141.627Z" transform="translate(-661.091 -136.932)" fill="#fff"/>
      </g>
    </g>
    <g id="Group_8735" data-name="Group 8735" transform="translate(6.834 5.973)">
      <path id="Path_5977" data-name="Path 5977" d="M671.7,149.338c0-1.788.823-2.854,2.4-2.854,1.448,0,2.145,1.023,2.145,2.854v6.679h3.92v-8.056c0-3.408-1.932-5.056-4.63-5.056a4.435,4.435,0,0,0-3.834,2.1v-1.713h-3.779v12.723H671.7Z" transform="translate(-667.925 -142.905)" fill="#fff"/>
    </g>
  </g>
</svg>
